<svg width="35" height="35" viewBox="0 0 35 35" fill="none" xmlns="http://www.w3.org/2000/svg">
    <path d="M17.5446 35H17.4584C16.5158 35 8.08651 34.9891 6.90366 35C6.99607 34.9626 6.97451 34.9688 6.86824 34.9735C6.1873 34.9777 5.51902 34.7872 4.9403 34.4238C4.36157 34.0605 3.89592 33.539 3.59693 32.9195C3.35091 32.5698 3.19243 32.1649 3.13512 31.7395C3.0778 31.3141 3.12337 30.8809 3.2679 30.4773C3.41244 30.0737 3.65161 29.7116 3.96486 29.4223C4.27812 29.1329 4.65607 28.925 5.06625 28.8162H29.9337C30.3439 28.925 30.7218 29.1329 31.0351 29.4223C31.3483 29.7116 31.5875 30.0737 31.732 30.4773C31.8766 30.8809 31.9221 31.3141 31.8648 31.7395C31.8075 32.1649 31.649 32.5698 31.403 32.9195C31.1045 33.5381 30.6398 34.0589 30.0623 34.4222C29.4847 34.7855 28.8178 34.9765 28.1379 34.9735C28.0301 34.9735 28.0085 34.9626 28.1024 35C26.9165 34.9891 18.4857 34.9984 17.5446 35ZM17.5847 27.2364H11.4641L12.3913 14.5023C12.3913 14.5023 12.6993 13.2359 13.6234 13.2547C15.4824 13.2765 17.2166 13.2547 17.5878 13.2547H17.6601C18.0267 13.2547 19.7686 13.2687 21.6168 13.2547C22.5409 13.2422 22.849 14.5023 22.849 14.5023L23.7731 27.2379L17.5847 27.2364ZM25.2085 27.2364C25.2085 27.2364 24.3398 16.1399 24.1889 13.9799C24.0199 13.3866 23.6903 12.853 23.2374 12.4396C22.7845 12.0261 22.2263 11.7493 21.6261 11.6405H13.4956C12.8953 11.7493 12.3372 12.0261 11.8842 12.4396C11.4313 12.853 11.1017 13.3866 10.9327 13.9799C10.7787 16.1383 9.91314 27.2364 9.91314 27.2364H6.31994L7.15163 12.6027C7.31667 11.5859 7.79822 10.6491 8.52606 9.92891C9.2539 9.20873 10.1899 8.74287 11.1976 8.59928H12.305V7.0163L10.7648 7.00694C10.452 6.9829 10.1516 6.87309 9.89572 6.68928C9.63986 6.50547 9.43823 6.2546 9.31247 5.96358V3.20778C9.52846 2.58721 9.90591 2.03721 10.405 1.61584C10.9041 1.19447 11.5062 0.917379 12.1479 0.813815C14.395 0.732716 23.1077 0.813815 23.1077 0.813815C23.744 0.904202 24.3411 1.17815 24.8278 1.60294C25.3145 2.02773 25.6701 2.5854 25.8523 3.20934V5.96358C25.7319 6.23936 25.5445 6.47973 25.3074 6.6622C25.0704 6.84468 24.7915 6.96329 24.4969 7.00694C24.3059 7.0241 23.6514 7.03345 22.7227 7.03969V8.59928H23.924C24.9308 8.74251 25.8662 9.20746 26.5939 9.92643C27.3217 10.6454 27.8038 11.5808 27.97 12.5965L28.8017 27.2301L25.2085 27.2364ZM17.6032 8.59928H21.4197V7.03969C19.0709 7.03969 15.8751 7.03033 13.6064 7.01942V8.5946L17.6032 8.59928Z" fill="#E33B00"/>
</svg>
