<svg width="15" height="13" viewBox="0 0 15 13" fill="none" xmlns="http://www.w3.org/2000/svg">
<path d="M11.1729 12.8565H1.68362C0.754879 12.8565 0 12.1016 0 11.1729V1.68362C0 0.754879 0.754879 0 1.68362 0H9.33621C9.58967 0 9.79537 0.205703 9.79537 0.45916C9.79537 0.712617 9.58967 0.91832 9.33621 0.91832H1.68362C1.26179 0.91832 0.91832 1.26179 0.91832 1.68362V11.1729C0.91832 11.5947 1.26179 11.9382 1.68362 11.9382H11.1729C11.5947 11.9382 11.9382 11.5947 11.9382 11.1729V5.96908C11.9382 5.71562 12.1439 5.50992 12.3973 5.50992C12.6508 5.50992 12.8565 5.71562 12.8565 5.96908V11.1729C12.8565 12.1016 12.1016 12.8565 11.1729 12.8565Z" fill="#22C197"/>
<path d="M7.49954 7.65268C7.38206 7.65268 7.26447 7.60796 7.17512 7.51794L4.42016 4.76298C4.2408 4.58362 4.2408 4.29284 4.42016 4.11348C4.59952 3.93412 4.89031 3.93412 5.06967 4.11348L7.50021 6.54391L13.9094 0.134726C14.0889 -0.0447458 14.3797 -0.0447458 14.559 0.134726C14.7384 0.314085 14.7384 0.604871 14.559 0.784231L7.82463 7.51861C7.73461 7.60796 7.61713 7.65268 7.49954 7.65268Z" fill="#22C197"/>
</svg>
