<svg width="14" height="14" viewBox="0 0 14 14" fill="none" xmlns="http://www.w3.org/2000/svg">
<path d="M11.6401 1.99741C10.3515 0.70885 8.64109 0 6.81874 0C4.99639 0 3.28597 0.70885 1.99741 1.99741C0.70885 3.28597 0 4.99639 0 6.81874C0 8.64109 0.70885 10.3515 1.99741 11.6401C3.28597 12.9286 4.99639 13.6375 6.81874 13.6375C8.64109 13.6375 10.3515 12.9286 11.6401 11.6401C12.9286 10.3515 13.6375 8.64109 13.6375 6.81874C13.6375 4.99639 12.9286 3.28597 11.6401 1.99741ZM11.0919 11.0919C9.94973 12.2341 8.43159 12.8626 6.81874 12.8626C5.20589 12.8626 3.68774 12.2341 2.54555 11.0919C0.189409 8.73579 0.189409 4.90168 2.54555 2.54555C3.68774 1.40335 5.20589 0.774857 6.81874 0.774857C8.43159 0.774857 9.94973 1.40335 11.0919 2.54555C13.4481 4.90168 13.4481 8.73579 11.0919 11.0919Z" fill="#FF0000"/>
<path d="M9.82335 3.81397C9.67125 3.66186 9.42731 3.66186 9.27521 3.81397L6.81863 6.27055L4.36204 3.81397C4.20994 3.66186 3.96601 3.66186 3.81391 3.81397C3.6618 3.96607 3.6618 4.21 3.81391 4.36211L6.27049 6.81869L3.81391 9.27527C3.6618 9.42737 3.6618 9.67131 3.81391 9.82341C3.88852 9.89803 3.98897 9.9382 4.08654 9.9382C4.18411 9.9382 4.28456 9.90089 4.35917 9.82341L6.81576 7.36683L9.27234 9.82341C9.34695 9.89803 9.4474 9.9382 9.54497 9.9382C9.64542 9.9382 9.74299 9.90089 9.81761 9.82341C9.96971 9.67131 9.96971 9.42737 9.81761 9.27527L7.36677 6.81869L9.82335 4.36211C9.97545 4.21 9.97545 3.96607 9.82335 3.81397Z" fill="#FF0000"/>
</svg>
